<?xml version="1.0" encoding="UTF-8"?>
<!DOCTYPE svg PUBLIC "-//W3C//DTD SVG 1.1//EN" "http://www.w3.org/Graphics/SVG/1.1/DTD/svg11.dtd">
<svg xmlns="http://www.w3.org/2000/svg" version="1.1" width="32px" height="32px" style="shape-rendering:geometricPrecision; text-rendering:geometricPrecision; image-rendering:optimizeQuality; fill-rule:evenodd; clip-rule:evenodd" xmlns:xlink="http://www.w3.org/1999/xlink">
<g><path style="opacity:0.539" fill="#01ebd2" d="M 12.5,-0.5 C 16.1667,-0.5 19.8333,-0.5 23.5,-0.5C 24.6935,0.271873 25.6935,1.27187 26.5,2.5C 25.8333,2.5 25.1667,2.5 24.5,2.5C 23.0695,2.57918 21.7362,2.24585 20.5,1.5C 19.537,1.96983 19.537,2.6365 20.5,3.5C 19.1667,3.5 17.8333,3.5 16.5,3.5C 16.6107,2.88258 16.944,2.38258 17.5,2C 15.735,1.36026 14.0683,1.52692 12.5,2.5C 11.5084,2.67158 10.8417,2.33825 10.5,1.5C 11.5,1.16667 12.1667,0.5 12.5,-0.5 Z"/></g>
<g><path style="opacity:0.607" fill="#00e2d6" d="M 24.5,2.5 C 25.1667,2.5 25.8333,2.5 26.5,2.5C 28.8218,3.80214 30.1551,5.80214 30.5,8.5C 29.8333,8.83333 29.1667,9.16667 28.5,9.5C 27.937,6.70516 26.6037,4.37183 24.5,2.5 Z"/></g>
<g><path style="opacity:0.902" fill="#00e0d7" d="M 16.5,3.5 C 17.8333,3.5 19.1667,3.5 20.5,3.5C 21.8333,4.83333 23.1667,6.16667 24.5,7.5C 22.7354,8.46138 20.7354,8.79472 18.5,8.5C 18.1667,7.16667 17.8333,7.16667 17.5,8.5C 16.5,8.5 15.5,8.5 14.5,8.5C 14.1667,7.16667 13.8333,7.16667 13.5,8.5C 12.8333,8.5 12.1667,8.5 11.5,8.5C 11.5,7.5 11.5,6.5 11.5,5.5C 13.7812,5.92271 15.4479,5.25605 16.5,3.5 Z"/></g>
<g><path style="opacity:0.576" fill="#00dfd7" d="M 10.5,1.5 C 10.8417,2.33825 11.5084,2.67158 12.5,2.5C 10.1402,3.86505 8.47349,5.86505 7.5,8.5C 6.83333,8.5 6.16667,8.5 5.5,8.5C 6.01019,5.32565 7.67686,2.99232 10.5,1.5 Z"/></g>
<g><path style="opacity:0.569" fill="#00d7dd" d="M 5.5,8.5 C 6.16667,8.5 6.83333,8.5 7.5,8.5C 7.53905,11.089 6.53905,13.089 4.5,14.5C 3.83333,14.5 3.16667,14.5 2.5,14.5C 3.52939,12.4832 4.52939,10.4832 5.5,8.5 Z"/></g>
<g><path style="opacity:0.654" fill="#00d4da" d="M 24.5,7.5 C 25.4171,9.66185 25.4171,11.9952 24.5,14.5C 20.2889,14.6757 16.2889,14.6757 12.5,14.5C 10.8489,12.5979 10.5155,10.5979 11.5,8.5C 12.1667,8.5 12.8333,8.5 13.5,8.5C 13.8333,13.8333 14.1667,13.8333 14.5,8.5C 15.5,8.5 16.5,8.5 17.5,8.5C 17.8333,9.83333 18.1667,9.83333 18.5,8.5C 20.7354,8.79472 22.7354,8.46138 24.5,7.5 Z"/></g>
<g><path style="opacity:0.523" fill="#00d1dc" d="M 30.5,8.5 C 30.8128,12.0419 30.4794,15.3752 29.5,18.5C 29.5,17.8333 29.1667,17.5 28.5,17.5C 28.5,14.8333 28.5,12.1667 28.5,9.5C 29.1667,9.16667 29.8333,8.83333 30.5,8.5 Z"/></g>
<g><path style="opacity:0.511" fill="#00cbde" d="M 12.5,14.5 C 16.2889,14.6757 20.2889,14.6757 24.5,14.5C 25.1098,15.391 25.4431,16.391 25.5,17.5C 24.8333,17.8333 24.1667,18.1667 23.5,18.5C 23.1667,15.8333 22.8333,15.8333 22.5,18.5C 19.9455,17.612 17.2788,17.2786 14.5,17.5C 14.1667,16.1667 13.8333,16.1667 13.5,17.5C 13.1667,17.5 12.8333,17.5 12.5,17.5C 11.8333,17.5 11.1667,17.5 10.5,17.5C 11.1667,16.5 11.8333,15.5 12.5,14.5 Z"/></g>
<g><path style="opacity:0.483" fill="#01c6e1" d="M 2.5,14.5 C 3.16667,14.5 3.83333,14.5 4.5,14.5C 4.58577,15.4959 4.25244,16.3292 3.5,17C 4.79323,17.49 6.12656,17.6567 7.5,17.5C 7.5,19.1667 7.5,20.8333 7.5,22.5C 6.83333,22.8333 6.16667,23.1667 5.5,23.5C 5.5,22.1667 5.5,20.8333 5.5,19.5C 3.83333,19.5 2.16667,19.5 0.5,19.5C 0.402065,17.4471 1.06873,15.7804 2.5,14.5 Z"/></g>
<g><path style="opacity:0.805" fill="#00c2e1" d="M 10.5,17.5 C 11.1667,17.5 11.8333,17.5 12.5,17.5C 12.8333,20.1667 13.1667,20.1667 13.5,17.5C 13.8333,17.5 14.1667,17.5 14.5,17.5C 17.2788,17.2786 19.9455,17.612 22.5,18.5C 22.8333,19.8333 23.1667,19.8333 23.5,18.5C 24.1667,18.1667 24.8333,17.8333 25.5,17.5C 26.7911,18.5417 26.7911,19.7083 25.5,21C 20.5111,21.4993 15.5111,21.6659 10.5,21.5C 10.5,20.1667 10.5,18.8333 10.5,17.5 Z"/></g>
<g><path style="opacity:0.564" fill="#01bee2" d="M 28.5,17.5 C 29.1667,17.5 29.5,17.8333 29.5,18.5C 29.5,21.1667 29.5,23.8333 29.5,26.5C 28.8333,26.5 28.1667,26.5 27.5,26.5C 27.19,23.2869 27.5233,20.2869 28.5,17.5 Z"/></g>
<g><path style="opacity:0.365" fill="#01b5e7" d="M 7.5,22.5 C 7.41423,23.4959 7.74756,24.3292 8.5,25C 11.8818,25.1764 15.2152,25.6764 18.5,26.5C 16.6684,27.0568 15.3351,28.0568 14.5,29.5C 13.8333,29.5 13.1667,29.5 12.5,29.5C 11.0512,27.8356 9.05119,27.0023 6.5,27C 5.66337,25.9887 5.33003,24.8221 5.5,23.5C 6.16667,23.1667 6.83333,22.8333 7.5,22.5 Z"/></g>
<g><path style="opacity:0.57" fill="#00ace9" d="M 27.5,26.5 C 28.1667,26.5 28.8333,26.5 29.5,26.5C 29.5,28.1667 29.5,29.8333 29.5,31.5C 23.8333,31.5 18.1667,31.5 12.5,31.5C 12.5,30.8333 12.5,30.1667 12.5,29.5C 13.1667,29.5 13.8333,29.5 14.5,29.5C 18.8333,29.5 23.1667,29.5 27.5,29.5C 27.5,28.5 27.5,27.5 27.5,26.5 Z"/></g>
</svg>
