<?xml version="1.0" encoding="UTF-8"?>
<!DOCTYPE svg PUBLIC "-//W3C//DTD SVG 1.1//EN" "http://www.w3.org/Graphics/SVG/1.1/DTD/svg11.dtd">
<svg xmlns="http://www.w3.org/2000/svg" version="1.1" width="512px" height="512px" style="shape-rendering:geometricPrecision; text-rendering:geometricPrecision; image-rendering:optimizeQuality; fill-rule:evenodd; clip-rule:evenodd" xmlns:xlink="http://www.w3.org/1999/xlink">
<g><path style="opacity:0.988" fill="#0071ff" d="M 234.5,31.5 C 300.613,26.8141 358.279,46.3141 407.5,90C 378.831,92.3356 365.664,107.836 368,136.5C 370.272,146.048 373.939,155.048 379,163.5C 386.759,175.346 393.759,187.679 400,200.5C 407.505,220.61 409.505,241.277 406,262.5C 397.595,294.789 388.262,326.789 378,358.5C 372.209,363.18 366.042,363.68 359.5,360C 357.959,358.421 356.792,356.587 356,354.5C 335.268,293.637 314.934,232.637 295,171.5C 294.096,162.549 297.262,155.383 304.5,150C 309.998,148.507 315.164,146.341 320,143.5C 323.054,135.275 320.22,130.609 311.5,129.5C 272.167,133.5 232.833,133.5 193.5,129.5C 186.607,129.954 183.44,133.621 184,140.5C 184.707,142.081 185.54,143.581 186.5,145C 200.39,147.022 211.557,153.522 220,164.5C 227.922,183.265 235.255,202.265 242,221.5C 246.849,235.653 247.516,249.987 244,264.5C 233.333,296.5 222.667,328.5 212,360.5C 207.041,366.615 200.874,368.115 193.5,365C 191.622,363.457 190.122,361.624 189,359.5C 167.799,296.896 146.799,234.23 126,171.5C 124.403,155.755 131.57,147.255 147.5,146C 151.788,142.229 152.621,137.729 150,132.5C 147.591,130.418 144.757,129.418 141.5,129.5C 116.893,132.099 92.2259,132.932 67.5,132C 107.958,73.4295 163.624,39.9295 234.5,31.5 Z"/></g>
<g><path style="opacity:0.978" fill="#0071ff" d="M 451.5,147.5 C 453.223,149.253 454.723,151.253 456,153.5C 481.258,205.489 486.591,259.489 472,315.5C 456.942,366.824 427.776,407.991 384.5,439C 378.664,441.749 374.664,440.082 372.5,434C 396.667,364.833 420.833,295.667 445,226.5C 452.795,200.594 454.961,174.26 451.5,147.5 Z"/></g>
<g><path style="opacity:0.982" fill="#0071ff" d="M 48.5,187.5 C 54.8482,186.884 59.6815,189.218 63,194.5C 92.3333,275.167 121.667,355.833 151,436.5C 151.782,449.033 146.615,452.2 135.5,446C 60.8564,395.205 26.3564,324.371 32,233.5C 33.1492,220.938 35.4825,208.604 39,196.5C 40.775,191.888 43.9417,188.888 48.5,187.5 Z"/></g>
<g><path style="opacity:0.986" fill="#0071ff" d="M 256.5,298.5 C 264.952,297.805 270.452,301.472 273,309.5C 291,358.833 309,408.167 327,457.5C 327.504,462.642 325.671,466.809 321.5,470C 292.452,478.857 262.785,481.857 232.5,479C 221.124,478.272 210.124,475.939 199.5,472C 195.758,467.483 194.591,462.316 196,456.5C 213.333,406.5 230.667,356.5 248,306.5C 250.098,302.897 252.932,300.23 256.5,298.5 Z"/></g>
</svg>
